<?xml version="1.0" standalone="no"?>
<!DOCTYPE svg PUBLIC "-//W3C//DTD SVG 20010904//EN"
 "http://www.w3.org/TR/2001/REC-SVG-20010904/DTD/svg10.dtd">
<svg version="1.0" xmlns="http://www.w3.org/2000/svg"
 width="512.000000pt" height="512.000000pt" viewBox="0 0 512.000000 512.000000"
 preserveAspectRatio="xMidYMid meet">
<metadata>
Created by potrace 1.11, written by Peter Selinger 2001-2013
</metadata>
<g transform="translate(0.000000,512.000000) scale(0.100000,-0.100000)"
fill="#000000" stroke="none">
<path d="M2495 4693 c-86 -8 -198 -26 -260 -43 -341 -89 -633 -318 -802 -630
-64 -118 -101 -226 -138 -405 -11 -51 -13 -307 -4 -380 19 -141 79 -317 157
-465 175 -332 254 -497 291 -610 23 -69 48 -139 56 -157 19 -39 56 -69 95 -78
29 -6 30 -8 30 -69 l0 -63 88 -7 c48 -4 101 -9 117 -10 17 -2 66 -6 110 -10
44 -4 98 -9 120 -11 52 -6 131 -13 230 -20 44 -3 94 -8 110 -10 17 -2 66 -7
110 -10 133 -10 171 -30 181 -96 11 -69 -31 -119 -103 -122 -33 -1 -134 6
-238 17 -16 2 -68 7 -115 11 -47 4 -98 9 -115 11 -16 2 -61 6 -100 9 -38 3
-91 8 -117 10 -55 6 -114 11 -211 20 l-68 6 3 -107 c3 -99 5 -108 23 -109 11
-1 58 -5 105 -9 149 -13 286 -25 345 -31 22 -2 74 -7 115 -10 41 -4 89 -8 105
-10 17 -2 68 -7 115 -11 47 -3 96 -8 110 -9 14 -2 38 -4 54 -4 40 -1 96 -59
96 -100 0 -41 -18 -77 -47 -97 -24 -15 -109 -21 -158 -10 -11 2 -58 7 -105 10
-47 4 -101 9 -120 11 -58 7 -155 16 -206 20 -60 4 -167 14 -214 20 -19 2 -77
7 -129 11 l-94 6 5 -73 c5 -83 25 -130 72 -172 31 -28 128 -63 145 -52 6 3 14
0 20 -7 41 -52 98 -110 132 -134 140 -97 388 -99 531 -4 45 30 121 105 129
127 2 7 24 14 49 18 90 13 147 53 180 127 18 40 20 70 20 489 l0 447 31 6 c57
11 92 62 138 203 43 129 106 266 247 533 128 244 190 408 211 560 12 83 8 347
-6 411 -6 30 -14 67 -16 81 -3 14 -16 60 -30 103 -158 485 -620 845 -1115 871
-58 3 -112 6 -120 7 -8 1 -28 1 -45 0z m250 -227 c412 -84 727 -370 840 -761
47 -163 52 -302 20 -515 -20 -129 -87 -305 -169 -440 -77 -129 -207 -401 -242
-507 l-35 -108 -591 0 -591 0 -44 120 c-48 133 -159 361 -242 500 -30 49 -65
115 -78 145 -13 30 -28 64 -33 75 -24 55 -65 214 -76 295 -77 589 330 1117
926 1203 37 5 280 0 315 -7z"/>
</g>
</svg>
